%TF.GenerationSoftware,KiCad,Pcbnew,10.0.1*%
%TF.CreationDate,2026-09-11T11:56:28-04:00*%
%TF.ProjectId,eeg,6565672e-6b69-4636-9164-5f7063625858,rev?*%
%TF.SameCoordinates,Original*%
%TF.FileFunction,Copper,L1,Top*%
%TF.FilePolarity,Positive*%
%FSLAX46Y46*%
G04 Gerber Fmt 4.6, Leading zero omitted, Abs format (unit mm)*
G04 Created by KiCad (PCBNEW 10.0.1) date 2026-09-11 11:56:28*
%MOMM*%
%LPD*%
G01*
G04 APERTURE LIST*
G04 Aperture macros list*
%AMRoundRect*
0 Rectangle with rounded corners*
0 $1 Rounding radius*
0 $2 $3 $4 $5 $6 $7 $8 $9 X,Y pos of 4 corners*
0 Add a 4 corners polygon primitive as box body*
4,1,4,$2,$3,$4,$5,$6,$7,$8,$9,$2,$3,0*
0 Add four circle primitives for the rounded corners*
1,1,$1+$1,$2,$3*
1,1,$1+$1,$4,$5*
1,1,$1+$1,$6,$7*
1,1,$1+$1,$8,$9*
0 Add four rect primitives between the rounded corners*
20,1,$1+$1,$2,$3,$4,$5,0*
20,1,$1+$1,$4,$5,$6,$7,0*
20,1,$1+$1,$6,$7,$8,$9,0*
20,1,$1+$1,$8,$9,$2,$3,0*%
G04 Aperture macros list end*
%TA.AperFunction,SMDPad,CuDef*%
%ADD10RoundRect,0.162500X0.162500X-0.837500X0.162500X0.837500X-0.162500X0.837500X-0.162500X-0.837500X0*%
%TD*%
%TA.AperFunction,ComponentPad*%
%ADD11C,1.700000*%
%TD*%
%TA.AperFunction,ComponentPad*%
%ADD12R,1.700000X1.700000*%
%TD*%
%TA.AperFunction,SMDPad,CuDef*%
%ADD13RoundRect,0.225000X-0.225000X-0.250000X0.225000X-0.250000X0.225000X0.250000X-0.225000X0.250000X0*%
%TD*%
%TA.AperFunction,SMDPad,CuDef*%
%ADD14RoundRect,0.225000X0.250000X-0.225000X0.250000X0.225000X-0.250000X0.225000X-0.250000X-0.225000X0*%
%TD*%
%TA.AperFunction,SMDPad,CuDef*%
%ADD15RoundRect,0.225000X-0.250000X0.225000X-0.250000X-0.225000X0.250000X-0.225000X0.250000X0.225000X0*%
%TD*%
%TA.AperFunction,SMDPad,CuDef*%
%ADD16R,0.800000X0.800000*%
%TD*%
%TA.AperFunction,SMDPad,CuDef*%
%ADD17RoundRect,0.225000X0.017678X-0.335876X0.335876X-0.017678X-0.017678X0.335876X-0.335876X0.017678X0*%
%TD*%
%TA.AperFunction,SMDPad,CuDef*%
%ADD18RoundRect,0.225000X-0.335876X-0.017678X-0.017678X-0.335876X0.335876X0.017678X0.017678X0.335876X0*%
%TD*%
%TA.AperFunction,SMDPad,CuDef*%
%ADD19R,1.117600X0.177800*%
%TD*%
%TA.AperFunction,SMDPad,CuDef*%
%ADD20R,0.177800X1.117600*%
%TD*%
%TA.AperFunction,ComponentPad*%
%ADD21C,3.500000*%
%TD*%
%TA.AperFunction,SMDPad,CuDef*%
%ADD22RoundRect,0.225000X0.225000X0.250000X-0.225000X0.250000X-0.225000X-0.250000X0.225000X-0.250000X0*%
%TD*%
%TA.AperFunction,Conductor*%
%ADD23C,0.200000*%
%TD*%
G04 APERTURE END LIST*
D10*
%TO.P,U2,6,I/O_6*%
%TO.N,Net-(J1-Pin_1)*%
X105300000Y-91180000D03*
%TO.P,U2,5,V+_5*%
%TO.N,Net-(J3-Pin_1)*%
X106250000Y-91180000D03*
%TO.P,U2,4,I/O_4*%
%TO.N,Net-(J1-Pin_2)*%
X107200000Y-91180000D03*
%TO.P,U2,3,I/O_3*%
%TO.N,Net-(J2-Pin_1)*%
X107200000Y-94600000D03*
%TO.P,U2,2,V-_2*%
%TO.N,Net-(J3-Pin_2)*%
X106250000Y-94600000D03*
%TO.P,U2,1,I/O_1*%
%TO.N,Net-(J2-Pin_2)*%
X105300000Y-94600000D03*
%TD*%
D11*
%TO.P,J1,2,Pin_2_2*%
%TO.N,Net-(J1-Pin_2)*%
X107200000Y-87800000D03*
D12*
%TO.P,J1,1,Pin_1_1*%
%TO.N,Net-(J1-Pin_1)*%
X104660000Y-87800000D03*
%TD*%
D13*
%TO.P,DGND-DVDD1,1*%
%TO.N,Net-(U1-DGND)*%
X120025000Y-88600000D03*
%TO.P,DGND-DVDD1,2*%
%TO.N,Net-(U1-DVDD)*%
X121575000Y-88600000D03*
%TD*%
D14*
%TO.P,IN2-IN2,1*%
%TO.N,Net-(J1-Pin_2)*%
X108800000Y-91975000D03*
%TO.P,IN2-IN2,2*%
%TO.N,Net-(J1-Pin_1)*%
X108800000Y-90425000D03*
%TD*%
%TO.P,VREFP-AVSS#1,1*%
%TO.N,Net-(J3-Pin_2)*%
X114600000Y-100750000D03*
%TO.P,VREFP-AVSS#1,2*%
%TO.N,Net-(U1-VREFP)*%
X114600000Y-99200000D03*
%TD*%
D12*
%TO.P,J4,1,Pin_1_1*%
%TO.N,Net-(J4-Pin_1)*%
X125400000Y-99140000D03*
D11*
%TO.P,J4,2,Pin_2_2*%
%TO.N,Net-(J4-Pin_2)*%
X125400000Y-96600000D03*
%TO.P,J4,3,Pin_3_3*%
%TO.N,Net-(J4-Pin_3)*%
X125400000Y-94060000D03*
%TO.P,J4,4,Pin_4_4*%
%TO.N,Net-(J4-Pin_4)*%
X125400000Y-91520000D03*
%TO.P,J4,5,Pin_5_5*%
%TO.N,Net-(J4-Pin_5)*%
X125400000Y-88980000D03*
%TD*%
D12*
%TO.P,J5,1,Pin_1_1*%
%TO.N,Net-(J5-Pin_1)*%
X111600000Y-86000000D03*
%TD*%
D13*
%TO.P,RLDCAP1,1*%
%TO.N,Net-(U1-RLDOUT)*%
X116050000Y-87200000D03*
%TO.P,RLDCAP1,2*%
%TO.N,Net-(U1-RLDINV)*%
X117600000Y-87200000D03*
%TD*%
D15*
%TO.P,IN1-IN1,1*%
%TO.N,Net-(J2-Pin_1)*%
X108800000Y-93400000D03*
%TO.P,IN1-IN1,2*%
%TO.N,Net-(J2-Pin_2)*%
X108800000Y-94950000D03*
%TD*%
D16*
%TO.P,R10,1*%
%TO.N,Net-(J2-Pin_2)*%
X110300000Y-94800000D03*
%TO.P,R10,2*%
%TO.N,Net-(U1-IN2P)*%
X111800000Y-94800000D03*
%TD*%
%TO.P,R2,1*%
%TO.N,Net-(U1-\u002APWDN{slash}\u002ARESET)*%
X119600000Y-98500000D03*
%TO.P,R2,2*%
%TO.N,Net-(U1-DVDD)*%
X119600000Y-100000000D03*
%TD*%
D17*
%TO.P,PGA1-PGA2,1*%
%TO.N,/PGA1_N*%
X113251992Y-90296016D03*
%TO.P,PGA1-PGA2,2*%
%TO.N,/PGA1_P*%
X114348008Y-89200000D03*
%TD*%
D12*
%TO.P,J2,1,Pin_1_1*%
%TO.N,Net-(J2-Pin_1)*%
X107200000Y-97800000D03*
D11*
%TO.P,J2,2,Pin_2_2*%
%TO.N,Net-(J2-Pin_2)*%
X104660000Y-97800000D03*
%TD*%
D18*
%TO.P,PGA2n-PGA2P1,1*%
%TO.N,Net-(U1-PGA2N)*%
X112600000Y-96200000D03*
%TO.P,PGA2n-PGA2P1,2*%
%TO.N,Net-(U1-PGA2P)*%
X113696014Y-97296016D03*
%TD*%
D19*
%TO.P,U1,1,PGA1N_1*%
%TO.N,/PGA1_N*%
X114000000Y-91799601D03*
%TO.P,U1,2,PGA1P_2*%
%TO.N,/PGA1_P*%
X114000000Y-92299600D03*
%TO.P,U1,3,IN1N_3*%
%TO.N,Net-(U1-IN1N)*%
X114000000Y-92799599D03*
%TO.P,U1,4,IN1P_4*%
%TO.N,/IN2_2*%
X114000000Y-93299600D03*
%TO.P,U1,5,IN2N_5*%
%TO.N,Net-(U1-IN2N)*%
X114000000Y-93799600D03*
%TO.P,U1,6,IN2P_6*%
%TO.N,Net-(U1-IN2P)*%
X114000000Y-94299601D03*
%TO.P,U1,7,PGA2N_7*%
%TO.N,Net-(U1-PGA2N)*%
X114000000Y-94799600D03*
%TO.P,U1,8,PGA2P_8*%
%TO.N,Net-(U1-PGA2P)*%
X114000000Y-95299599D03*
D20*
%TO.P,U1,9,VREFP_9*%
%TO.N,Net-(U1-VREFP)*%
X115399601Y-96699200D03*
%TO.P,U1,10,VREFN_10*%
%TO.N,Net-(J3-Pin_2)*%
X115899600Y-96699200D03*
%TO.P,U1,11,VCAP1_11*%
%TO.N,Net-(U1-VCAP1)*%
X116399599Y-96699200D03*
%TO.P,U1,12,AVDD_12*%
%TO.N,Net-(J3-Pin_1)*%
X116899600Y-96699200D03*
%TO.P,U1,13,AVSS_13*%
%TO.N,Net-(J3-Pin_2)*%
X117399600Y-96699200D03*
%TO.P,U1,14,CLKSEL_14*%
%TO.N,Net-(U1-DVDD)*%
X117899601Y-96699200D03*
%TO.P,U1,15,\u002APWDN/\u002ARESET_15*%
%TO.N,Net-(U1-\u002APWDN{slash}\u002ARESET)*%
X118399600Y-96699200D03*
%TO.P,U1,16,START_16*%
%TO.N,Net-(U1-START)*%
X118899599Y-96699200D03*
D19*
%TO.P,U1,17,CLKSEL_17*%
%TO.N,Net-(H1-Pad1)*%
X120299200Y-95299599D03*
%TO.P,U1,18,\u002ACS_18*%
%TO.N,Net-(J4-Pin_1)*%
X120299200Y-94799600D03*
%TO.P,U1,19,DIN_19*%
%TO.N,Net-(J4-Pin_2)*%
X120299200Y-94299601D03*
%TO.P,U1,20,SCLK_20*%
%TO.N,Net-(J4-Pin_3)*%
X120299200Y-93799600D03*
%TO.P,U1,21,DOUT_21*%
%TO.N,Net-(J4-Pin_4)*%
X120299200Y-93299600D03*
%TO.P,U1,22,\u002ADRDY_22*%
%TO.N,Net-(J4-Pin_5)*%
X120299200Y-92799599D03*
%TO.P,U1,23,DVDD_23*%
%TO.N,Net-(U1-DVDD)*%
X120299200Y-92299600D03*
%TO.P,U1,24,DGND_24*%
%TO.N,Net-(U1-DGND)*%
X120299200Y-91799601D03*
D20*
%TO.P,U1,25,GPIO2/RCLK2_25*%
X118899599Y-90400000D03*
%TO.P,U1,26,GPIO1/RCLK1_26*%
X118399600Y-90400000D03*
%TO.P,U1,27,VCAP2_27*%
%TO.N,Net-(U1-VCAP2)*%
X117899601Y-90400000D03*
%TO.P,U1,28,RLDINV_28*%
%TO.N,Net-(U1-RLDINV)*%
X117399600Y-90400000D03*
%TO.P,U1,29,RLDIN/RLDREF_29*%
%TO.N,unconnected-(U1-RLDIN{slash}RLDREF-Pad29)*%
X116899600Y-90400000D03*
%TO.P,U1,30,RLDOUT_30*%
%TO.N,Net-(U1-RLDOUT)*%
X116399599Y-90400000D03*
%TO.P,U1,31,RESP_MODP/IN3P_31*%
%TO.N,Net-(J3-Pin_1)*%
X115899600Y-90400000D03*
%TO.P,U1,32,RESP_MODN/IN3N_32*%
X115399601Y-90400000D03*
%TD*%
D16*
%TO.P,R1,1*%
%TO.N,Net-(U1-START)*%
X121400000Y-98700000D03*
%TO.P,R1,2*%
%TO.N,Net-(U1-DGND)*%
X121400000Y-97200000D03*
%TD*%
D12*
%TO.P,J3,1,Pin_1_1*%
%TO.N,Net-(J3-Pin_1)*%
X115925000Y-103400000D03*
D11*
%TO.P,J3,2,Pin_2_2*%
%TO.N,Net-(J3-Pin_2)*%
X118465000Y-103400000D03*
%TD*%
D16*
%TO.P,R8,1*%
%TO.N,Net-(J1-Pin_2)*%
X110300000Y-92400000D03*
%TO.P,R8,2*%
%TO.N,/IN2_2*%
X111800000Y-92400000D03*
%TD*%
D21*
%TO.P,H1,1,1_1*%
%TO.N,Net-(H1-Pad1)*%
X122400000Y-102600000D03*
%TD*%
D14*
%TO.P,Vcap1-AVSS1,1*%
%TO.N,Net-(J3-Pin_2)*%
X113400000Y-104175000D03*
%TO.P,Vcap1-AVSS1,2*%
%TO.N,Net-(U1-VCAP1)*%
X113400000Y-102625000D03*
%TD*%
D16*
%TO.P,RLD-RC1,1*%
%TO.N,Net-(U1-RLDINV)*%
X117600000Y-88600000D03*
%TO.P,RLD-RC1,2*%
%TO.N,Net-(U1-RLDOUT)*%
X116100000Y-88600000D03*
%TD*%
D13*
%TO.P,AVDD-AVSS#1,1*%
%TO.N,Net-(J3-Pin_1)*%
X116450000Y-99200000D03*
%TO.P,AVDD-AVSS#1,2*%
%TO.N,Net-(J3-Pin_2)*%
X118000000Y-99200000D03*
%TD*%
D16*
%TO.P,R9,1*%
%TO.N,Net-(J2-Pin_1)*%
X110300000Y-93600000D03*
%TO.P,R9,2*%
%TO.N,Net-(U1-IN2N)*%
X111800000Y-93600000D03*
%TD*%
D13*
%TO.P,AVDD-AVSS#2,1*%
%TO.N,Net-(J3-Pin_1)*%
X116425000Y-100800000D03*
%TO.P,AVDD-AVSS#2,2*%
%TO.N,Net-(J3-Pin_2)*%
X117975000Y-100800000D03*
%TD*%
D16*
%TO.P,R7,1*%
%TO.N,Net-(J1-Pin_1)*%
X110300000Y-91200000D03*
%TO.P,R7,2*%
%TO.N,Net-(U1-IN1N)*%
X111800000Y-91200000D03*
%TD*%
D13*
%TO.P,C15,1*%
%TO.N,Net-(U1-DGND)*%
X120025000Y-90200000D03*
%TO.P,C15,2*%
%TO.N,Net-(U1-DVDD)*%
X121575000Y-90200000D03*
%TD*%
D14*
%TO.P,VREFP-AVSS#2,1*%
%TO.N,Net-(J3-Pin_2)*%
X113000000Y-100750000D03*
%TO.P,VREFP-AVSS#2,2*%
%TO.N,Net-(U1-VREFP)*%
X113000000Y-99200000D03*
%TD*%
D16*
%TO.P,RLD-1Mohm1,1*%
%TO.N,Net-(U1-RLDOUT)*%
X115900000Y-85800000D03*
%TO.P,RLD-1Mohm1,2*%
%TO.N,Net-(J5-Pin_1)*%
X114400000Y-85800000D03*
%TD*%
D22*
%TO.P,VCAP2-AVSS1,1*%
%TO.N,Net-(J3-Pin_2)*%
X120750000Y-87000000D03*
%TO.P,VCAP2-AVSS1,2*%
%TO.N,Net-(U1-VCAP2)*%
X119200000Y-87000000D03*
%TD*%
%TO.N,Net-(J3-Pin_1)*%
D23*
X115292692Y-89092692D02*
X115320600Y-89120600D01*
X115320600Y-89120600D02*
X115320600Y-90320999D01*
X115292692Y-88971734D02*
X115292692Y-89092692D01*
X114576274Y-88255316D02*
X115292692Y-88971734D01*
X115320600Y-90320999D02*
X115399601Y-90400000D01*
X114455316Y-88255316D02*
X114576274Y-88255316D01*
X114200000Y-88000000D02*
X114455316Y-88255316D01*
X110000000Y-88000000D02*
X114200000Y-88000000D01*
X109279400Y-87279400D02*
X110000000Y-88000000D01*
X109279400Y-87201426D02*
X109279400Y-87279400D01*
X107798574Y-85720600D02*
X109279400Y-87201426D01*
X106061426Y-85720600D02*
X107798574Y-85720600D01*
X103430600Y-86570600D02*
X103601200Y-86400000D01*
X103430600Y-91081466D02*
X103430600Y-86570600D01*
X104908534Y-92559400D02*
X103430600Y-91081466D01*
X103601200Y-86400000D02*
X105382026Y-86400000D01*
X105382026Y-86400000D02*
X106061426Y-85720600D01*
X105691466Y-92559400D02*
X104908534Y-92559400D01*
X106250000Y-92000866D02*
X105691466Y-92559400D01*
X106250000Y-91180000D02*
X106250000Y-92000866D01*
%TO.N,Net-(J3-Pin_2)*%
X113829400Y-104629400D02*
X117235600Y-104629400D01*
X108668387Y-99468387D02*
X113829400Y-104629400D01*
X108627974Y-99508800D02*
X108668387Y-99468387D01*
X105690826Y-99508800D02*
X108627974Y-99508800D01*
X105190331Y-99008304D02*
X105690826Y-99508800D01*
X105169235Y-99029400D02*
X105190331Y-99008304D01*
X104150765Y-99029400D02*
X105169235Y-99029400D01*
X103430600Y-97290765D02*
X103430600Y-98309235D01*
X104150765Y-96570600D02*
X103430600Y-97290765D01*
X104595600Y-93533534D02*
X104595600Y-96570600D01*
X105691466Y-93220600D02*
X104908534Y-93220600D01*
X106250000Y-93779134D02*
X105691466Y-93220600D01*
X106250000Y-94600000D02*
X106250000Y-93779134D01*
X104908534Y-93220600D02*
X104595600Y-93533534D01*
X104595600Y-96570600D02*
X104150765Y-96570600D01*
X103430600Y-98309235D02*
X104150765Y-99029400D01*
%TO.N,Net-(H1-Pad1)*%
X122400000Y-96817974D02*
X122400000Y-102600000D01*
X120881625Y-95299599D02*
X122400000Y-96817974D01*
X120299200Y-95299599D02*
X120881625Y-95299599D01*
%TO.N,Net-(J3-Pin_2)*%
X118465000Y-101290000D02*
X117975000Y-100800000D01*
X118465000Y-103400000D02*
X118465000Y-101290000D01*
X117235600Y-104629400D02*
X118465000Y-103400000D01*
%TO.N,Net-(J2-Pin_1)*%
X108400000Y-93400000D02*
X108800000Y-93400000D01*
X107200000Y-94600000D02*
X108400000Y-93400000D01*
%TO.N,Net-(J2-Pin_2)*%
X108800000Y-98658800D02*
X108800000Y-94950000D01*
X105889400Y-99029400D02*
X108429400Y-99029400D01*
X104660000Y-97800000D02*
X105889400Y-99029400D01*
X108429400Y-99029400D02*
X108800000Y-98658800D01*
X105300000Y-94600000D02*
X105300000Y-97160000D01*
X105300000Y-97160000D02*
X104660000Y-97800000D01*
%TO.N,Net-(J2-Pin_1)*%
X107200000Y-94600000D02*
X107200000Y-97800000D01*
%TO.N,/PGA1_N*%
X113251992Y-91051593D02*
X114000000Y-91799601D01*
X113251992Y-90296016D02*
X113251992Y-91051593D01*
%TO.N,/PGA1_P*%
X114906501Y-92299600D02*
X114000000Y-92299600D01*
X114938200Y-92267901D02*
X114906501Y-92299600D01*
X114938200Y-91331301D02*
X114938200Y-92267901D01*
X114348008Y-90741109D02*
X114938200Y-91331301D01*
X114348008Y-89200000D02*
X114348008Y-90741109D01*
%TO.N,Net-(J1-Pin_2)*%
X108005000Y-91180000D02*
X108800000Y-91975000D01*
X107200000Y-91180000D02*
X108005000Y-91180000D01*
%TO.N,Net-(J1-Pin_1)*%
X105300000Y-88440000D02*
X104660000Y-87800000D01*
X105300000Y-91180000D02*
X105300000Y-88440000D01*
%TO.N,Net-(J1-Pin_2)*%
X107200000Y-91180000D02*
X107200000Y-87800000D01*
%TO.N,Net-(J1-Pin_1)*%
X106260000Y-86200000D02*
X104660000Y-87800000D01*
X107600000Y-86200000D02*
X106260000Y-86200000D01*
X108800000Y-87400000D02*
X107600000Y-86200000D01*
X108800000Y-90425000D02*
X108800000Y-87400000D01*
%TO.N,Net-(U1-PGA2P)*%
X113696014Y-95603585D02*
X114000000Y-95299599D01*
X113696014Y-97296016D02*
X113696014Y-95603585D01*
%TO.N,Net-(U1-PGA2N)*%
X113093499Y-94799600D02*
X114000000Y-94799600D01*
X112600000Y-95293099D02*
X113093499Y-94799600D01*
X112600000Y-96200000D02*
X112600000Y-95293099D01*
%TO.N,Net-(J3-Pin_2)*%
X119865000Y-104800000D02*
X118465000Y-103400000D01*
X120910599Y-104800000D02*
X119865000Y-104800000D01*
X121519399Y-105408800D02*
X120910599Y-104800000D01*
X127679400Y-101410001D02*
X123680601Y-105408800D01*
X127679400Y-87401426D02*
X127679400Y-101410001D01*
X127400000Y-87122026D02*
X127679400Y-87401426D01*
X127120600Y-86520600D02*
X127400000Y-86800000D01*
X121229400Y-86520600D02*
X127120600Y-86520600D01*
X123680601Y-105408800D02*
X121519399Y-105408800D01*
X120750000Y-87000000D02*
X121229400Y-86520600D01*
X127400000Y-86800000D02*
X127400000Y-87122026D01*
%TO.N,Net-(U1-DVDD)*%
X127200000Y-87600000D02*
X126600000Y-87000000D01*
X127200000Y-101211427D02*
X127200000Y-87600000D01*
X123482027Y-104929400D02*
X127200000Y-101211427D01*
X121717973Y-104929400D02*
X123482027Y-104929400D01*
X123175000Y-87000000D02*
X121575000Y-88600000D01*
X119600000Y-102811427D02*
X121717973Y-104929400D01*
X126600000Y-87000000D02*
X123175000Y-87000000D01*
X119600000Y-100000000D02*
X119600000Y-102811427D01*
%TO.N,Net-(U1-\u002APWDN{slash}\u002ARESET)*%
X119185937Y-98214063D02*
X118399600Y-97427726D01*
X119185937Y-98214063D02*
X119314063Y-98214063D01*
X119314063Y-98214063D02*
X119600000Y-98500000D01*
%TO.N,Net-(U1-DVDD)*%
X119600000Y-100000000D02*
X119700000Y-99900000D01*
X119700000Y-99900000D02*
X118829400Y-99029400D01*
%TO.N,Net-(U1-DGND)*%
X119361000Y-95767899D02*
X119361000Y-91831300D01*
X119392699Y-91799601D02*
X120299200Y-91799601D01*
X120793101Y-97200000D02*
X119361000Y-95767899D01*
X121400000Y-97200000D02*
X120793101Y-97200000D01*
X119361000Y-91831300D02*
X119392699Y-91799601D01*
%TO.N,Net-(U1-START)*%
X121400000Y-98700000D02*
X119399200Y-96699200D01*
X119399200Y-96699200D02*
X118899599Y-96699200D01*
%TO.N,Net-(J3-Pin_2)*%
X112400000Y-103175000D02*
X113400000Y-104175000D01*
X112400000Y-101350000D02*
X112400000Y-103175000D01*
X113000000Y-100750000D02*
X112400000Y-101350000D01*
%TO.N,Net-(U1-VREFP)*%
X113000000Y-99200000D02*
X114600000Y-99200000D01*
X114600000Y-97498801D02*
X115399601Y-96699200D01*
X114600000Y-99200000D02*
X114600000Y-97498801D01*
%TO.N,Net-(J3-Pin_2)*%
X113000000Y-100750000D02*
X114600000Y-100750000D01*
%TO.N,Net-(U1-VCAP1)*%
X115620600Y-99579400D02*
X115620600Y-98693414D01*
X115400000Y-99800000D02*
X115620600Y-99579400D01*
X116399599Y-97914415D02*
X116399599Y-96699200D01*
X115400000Y-101200000D02*
X115400000Y-99800000D01*
X114829400Y-101770600D02*
X115400000Y-101200000D01*
X114254400Y-101770600D02*
X114829400Y-101770600D01*
X115620600Y-98693414D02*
X116399599Y-97914415D01*
X113400000Y-102625000D02*
X114254400Y-101770600D01*
%TO.N,Net-(J3-Pin_2)*%
X113854400Y-104629400D02*
X117235600Y-104629400D01*
X113400000Y-104175000D02*
X113854400Y-104629400D01*
%TO.N,Net-(U1-VCAP2)*%
X117993100Y-89400000D02*
X117899601Y-89493499D01*
X118600000Y-89400000D02*
X117993100Y-89400000D01*
X118600000Y-87600000D02*
X118600000Y-89400000D01*
X117899601Y-89493499D02*
X117899601Y-90400000D01*
X119200000Y-87000000D02*
X118600000Y-87600000D01*
%TO.N,Net-(U1-DGND)*%
X120025000Y-90200000D02*
X119099599Y-90200000D01*
X120025000Y-88600000D02*
X120025000Y-90200000D01*
X118899599Y-90400000D02*
X120299200Y-91799601D01*
X119099599Y-90200000D02*
X118899599Y-90400000D01*
X118899599Y-90400000D02*
X118399600Y-90400000D01*
%TO.N,Net-(U1-DVDD)*%
X118829400Y-99029400D02*
X118829400Y-98535500D01*
X117899601Y-97605701D02*
X117899601Y-96699200D01*
X121575000Y-90200000D02*
X121575000Y-91930301D01*
X121575000Y-88600000D02*
X121575000Y-90200000D01*
X121205701Y-92299600D02*
X120299200Y-92299600D01*
X119800000Y-100000000D02*
X119700000Y-99900000D01*
X121575000Y-91930301D02*
X121205701Y-92299600D01*
X118829400Y-98535500D02*
X117899601Y-97605701D01*
%TO.N,Net-(J1-Pin_2)*%
X110300000Y-92400000D02*
X109225000Y-92400000D01*
X109225000Y-92400000D02*
X108800000Y-91975000D01*
%TO.N,Net-(J1-Pin_1)*%
X109525000Y-90425000D02*
X110300000Y-91200000D01*
X108800000Y-90425000D02*
X109525000Y-90425000D01*
%TO.N,Net-(J3-Pin_2)*%
X118000000Y-99200000D02*
X117399600Y-98599600D01*
X117399600Y-98599600D02*
X117399600Y-96699200D01*
X117975000Y-100800000D02*
X117975000Y-99225000D01*
X117975000Y-99225000D02*
X118000000Y-99200000D01*
%TO.N,Net-(J4-Pin_1)*%
X121059600Y-94799600D02*
X120299200Y-94799600D01*
X125400000Y-99140000D02*
X121059600Y-94799600D01*
%TO.N,Net-(J4-Pin_2)*%
X125400000Y-96600000D02*
X123099601Y-94299601D01*
X123099601Y-94299601D02*
X120299200Y-94299601D01*
%TO.N,Net-(J4-Pin_3)*%
X125400000Y-94060000D02*
X125139600Y-93799600D01*
X125139600Y-93799600D02*
X120299200Y-93799600D01*
%TO.N,Net-(J4-Pin_4)*%
X120279800Y-93320200D02*
X120299200Y-93300800D01*
X120299200Y-93300800D02*
X120299200Y-93299600D01*
X125400000Y-91520000D02*
X123599800Y-93320200D01*
X123599800Y-93320200D02*
X120279800Y-93320200D01*
%TO.N,Net-(J4-Pin_5)*%
X121580401Y-92799599D02*
X120299200Y-92799599D01*
X125400000Y-88980000D02*
X121580401Y-92799599D01*
%TO.N,Net-(J5-Pin_1)*%
X111800000Y-85800000D02*
X111600000Y-86000000D01*
X114400000Y-85800000D02*
X111800000Y-85800000D01*
%TO.N,Net-(U1-RLDOUT)*%
X115900000Y-87050000D02*
X116050000Y-87200000D01*
X115900000Y-85800000D02*
X115900000Y-87050000D01*
X116100000Y-88600000D02*
X116399599Y-88899599D01*
X116050000Y-88550000D02*
X116100000Y-88600000D01*
X116399599Y-88899599D02*
X116399599Y-90400000D01*
X116050000Y-87200000D02*
X116050000Y-88550000D01*
%TO.N,Net-(U1-RLDINV)*%
X117399600Y-88800400D02*
X117399600Y-90400000D01*
X117600000Y-88600000D02*
X117399600Y-88800400D01*
X117600000Y-87200000D02*
X117600000Y-88600000D01*
%TO.N,Net-(J2-Pin_1)*%
X110300000Y-93600000D02*
X109000000Y-93600000D01*
X109000000Y-93600000D02*
X108800000Y-93400000D01*
%TO.N,Net-(J2-Pin_2)*%
X110300000Y-94800000D02*
X108950000Y-94800000D01*
X108950000Y-94800000D02*
X108800000Y-94950000D01*
%TO.N,Net-(U1-IN2P)*%
X111800000Y-94800000D02*
X112400000Y-94800000D01*
X112900399Y-94299601D02*
X114000000Y-94299601D01*
X112400000Y-94800000D02*
X112900399Y-94299601D01*
%TO.N,Net-(U1-\u002APWDN{slash}\u002ARESET)*%
X119800000Y-98500000D02*
X119471874Y-98500000D01*
X118399600Y-97427726D02*
X118399600Y-96699200D01*
X119471874Y-98500000D02*
X119185937Y-98214063D01*
%TO.N,Net-(U1-IN1N)*%
X114000000Y-92799599D02*
X113277573Y-92799599D01*
X112200000Y-91200000D02*
X111800000Y-91200000D01*
X113277573Y-92799599D02*
X112579400Y-92101426D01*
X112579400Y-92101426D02*
X112579400Y-91579400D01*
X112579400Y-91579400D02*
X112200000Y-91200000D01*
%TO.N,/IN2_2*%
X113099600Y-93299600D02*
X114000000Y-93299600D01*
X111800000Y-92400000D02*
X112200000Y-92400000D01*
X112200000Y-92400000D02*
X113099600Y-93299600D01*
%TO.N,Net-(U1-IN2N)*%
X111999600Y-93799600D02*
X114000000Y-93799600D01*
X111800000Y-93600000D02*
X111999600Y-93799600D01*
%TO.N,Net-(J3-Pin_1)*%
X115899600Y-94792701D02*
X116899600Y-95792701D01*
X116899600Y-98750400D02*
X116899600Y-96699200D01*
X115899600Y-90400000D02*
X115899600Y-94792701D01*
X116899600Y-95792701D02*
X116899600Y-96699200D01*
X116425000Y-100800000D02*
X116425000Y-99225000D01*
X115925000Y-103200000D02*
X115925000Y-101300000D01*
X115925000Y-101300000D02*
X116425000Y-100800000D01*
X115399601Y-90400000D02*
X115899600Y-90400000D01*
X116425000Y-99225000D02*
X116450000Y-99200000D01*
X116450000Y-99200000D02*
X116899600Y-98750400D01*
%TD*%
M02*
